<?xml version="1.0" standalone="no"?><!DOCTYPE svg PUBLIC "-//W3C//DTD SVG 1.1//EN" "http://www.w3.org/Graphics/SVG/1.1/DTD/svg11.dtd"><svg t="1487175983636" class="icon" style="" viewBox="0 0 1024 1024" version="1.1" xmlns="http://www.w3.org/2000/svg" p-id="23050" xmlns:xlink="http://www.w3.org/1999/xlink" width="200" height="200"><defs><style type="text/css">@font-face { font-family: uc-nexus-iconfont; src: url("chrome-extension://pogijhnlcfmcppgimcaccdkmbedjkmhi/res/font_9qmmi8b8jsxxbt9.woff") format("woff"), url("chrome-extension://pogijhnlcfmcppgimcaccdkmbedjkmhi/res/font_9qmmi8b8jsxxbt9.ttf") format("truetype"); }
</style></defs><path d="M123.067408 215.502146l0 561.576115c0 0 77.229942-54.766324 186.792267-54.766324 109.532649 0 186.731892 54.766324 186.731892 54.766324L496.591567 222.580355c0 0-77.199243-63.583131-186.731892-63.583131C200.29735 158.997224 123.067408 215.502146 123.067408 215.502146z" p-id="23051"></path><path d="M525.322935 215.502146l0 561.576115c0 0 77.200266-54.766324 186.731892-54.766324 109.532649 0 186.761568 54.766324 186.761568 54.766324L898.816394 222.580355c0 0-77.228919-63.583131-186.761568-63.583131C602.524225 158.997224 525.322935 215.502146 525.322935 215.502146z" p-id="23052"></path><path d="M65.632301 272.008091l28.733415 0 0 536.863271 344.762091 0 0 28.251438 143.661957 0 0-28.251438 344.762091 0L927.551856 272.008091l28.731368 0 0 565.114708L611.522156 837.122799l1.799996 28.252461L410.394393 865.37526l0-28.252461L65.632301 837.122799 65.632301 272.008091z" p-id="23053"></path></svg>