<?xml version="1.0" standalone="no"?><!DOCTYPE svg PUBLIC "-//W3C//DTD SVG 1.1//EN" "http://www.w3.org/Graphics/SVG/1.1/DTD/svg11.dtd"><svg t="1487175085345" class="icon" style="" viewBox="0 0 1024 1024" version="1.1" xmlns="http://www.w3.org/2000/svg" p-id="17925" xmlns:xlink="http://www.w3.org/1999/xlink" width="200" height="200"><defs><style type="text/css">@font-face { font-family: uc-nexus-iconfont; src: url("chrome-extension://pogijhnlcfmcppgimcaccdkmbedjkmhi/res/font_9qmmi8b8jsxxbt9.woff") format("woff"), url("chrome-extension://pogijhnlcfmcppgimcaccdkmbedjkmhi/res/font_9qmmi8b8jsxxbt9.ttf") format("truetype"); }
</style></defs><path d="M626.435309 1006.066559c-11.145851 0-22.311145-1.093914-33.184797-3.251044-36.923958-7.310499-71.552639-26.924209-102.924137-58.293661-30.713512-30.713512-62.621223-45.644573-97.54564-45.644573-13.56597 0-27.677363 2.372024-41.942251 7.051603-39.266305 12.880355-66.124 38.666648-66.37778 38.921451-5.031597 4.9088-11.756765 7.633864-18.897396 7.633864-7.389294 0-14.298658-2.910283-19.454074-8.195659-5.077645-5.199419-7.826246-12.06171-7.739265-19.326161 0.085958-7.264451 2.996241-14.057157 8.192589-19.132756 3.616364-3.5345 36.779671-35.004235 87.318718-51.583842 19.688411-6.458085 39.467897-9.733689 58.787918-9.733689 11.138688 0 22.306029 1.093914 33.19196 3.251044 36.933167 7.313569 71.561849 26.926256 102.928231 58.293661 30.711466 30.715559 62.621223 45.644573 97.547687 45.642526 13.57211-0.002047 27.680433-2.37407 41.936111-7.049556 38.150902-12.512988 65.012689-37.621852 66.138326-38.685068 5.215792-5.092995 11.993149-7.874341 19.129686-7.874341 7.389294 0 14.302751 2.911306 19.467377 8.200776 5.074575 5.197372 7.821129 12.06171 7.732102 19.324114-0.084934 7.266497-2.994194 14.059204-8.193613 19.129686-3.620457 3.53757-36.805254 35.016515-87.320765 51.586912C665.540955 1002.791979 645.76147 1006.066559 626.435309 1006.066559zM924.915307 669.739581c-14.998599 0-27.199479-12.198833-27.199479-27.192316L897.715829 432.877965c0-70.851675-57.639768-128.493489-128.48735-128.493489-70.856791 0-128.501676 57.641815-128.501676 128.493489L640.726803 642.547265c0 14.993482-12.198833 27.192316-27.192316 27.192316-14.998599 0-27.199479-12.198833-27.199479-27.192316L586.335009 266.396279c0-14.997576 12.20088-27.199479 27.199479-27.199479 14.993482 0 27.192316 12.201903 27.192316 27.199479l0 34.526351 18.10331-13.751189c32.021298-24.323988 70.195735-37.180807 110.398366-37.180807 100.844779 0 182.88733 82.043574 182.88733 182.88733L952.115809 642.547265C952.114786 657.540747 939.913906 669.739581 924.915307 669.739581zM122.935913 660.21567c-28.15013 0-51.051723-22.902616-51.051723-51.051723L71.884191 68.984141c0-28.15013 22.901593-51.051723 51.051723-51.051723L470.213291 17.932418c7.547907 0 14.942317 3.123131 20.284999 8.569166 5.148253 5.247514 7.910157 12.051477 7.774057 19.157315-0.277316 14.70491-12.476149 26.66736-27.192316 26.66736L159.998017 72.326259c-18.593474 0-33.719986 15.126512-33.719986 33.719986l0 194.211237 344.802 0c14.996552 0 27.198455 12.19781 27.198455 27.190269 0 14.998599-12.20088 27.200502-27.198455 27.200502L126.278031 354.648252l0 217.452567c0 18.593474 15.126512 33.721009 33.719986 33.721009l311.082014 0c14.716166 0 26.915 11.960403 27.192316 26.66429 0.1361 7.108908-2.62478 13.911848-7.774057 19.160385-5.343705 5.445012-12.737092 8.568143-20.284999 8.568143L122.935913 660.214646z" p-id="17926"></path></svg>