<?xml version="1.0" standalone="no"?><!DOCTYPE svg PUBLIC "-//W3C//DTD SVG 1.1//EN" "http://www.w3.org/Graphics/SVG/1.1/DTD/svg11.dtd"><svg t="1487173376151" class="icon" style="" viewBox="0 0 1024 1024" version="1.1" xmlns="http://www.w3.org/2000/svg" p-id="10421" xmlns:xlink="http://www.w3.org/1999/xlink" width="200" height="200"><defs><style type="text/css">@font-face { font-family: uc-nexus-iconfont; src: url("chrome-extension://pogijhnlcfmcppgimcaccdkmbedjkmhi/res/font_9qmmi8b8jsxxbt9.woff") format("woff"), url("chrome-extension://pogijhnlcfmcppgimcaccdkmbedjkmhi/res/font_9qmmi8b8jsxxbt9.ttf") format("truetype"); }
</style></defs><path d="M945.083649 366.644471l-425.971671-183.198415c-2.608407-1.12666-5.383614-1.689479-8.128121-1.689479-2.759857 0-5.520737 0.562818-8.144494 1.689479L76.869738 366.644471c-8.979512 3.845585-14.925944 13.653975-14.925944 24.589025 0 10.954493 5.946432 20.744463 14.925944 24.608467l425.970648 183.199439c2.623757 1.146103 5.383614 1.708921 8.144494 1.708921 2.743484 0 5.519714-0.562818 8.128121-1.708921l331.187935-142.43399 0 145.715733c-17.753339 9.401114-30.089295 29.849842-30.089295 53.627385 0 23.778566 12.335956 44.226271 30.089295 53.627385l0 50.829665 43.617403 0 0-50.821479c17.762549-9.400091 30.106692-29.852912 30.106692-53.635571s-12.343119-44.236504-30.106692-53.636594L893.918339 437.848163l51.166333-22.007223c8.978489-3.864004 14.925944-13.652951 14.925944-24.608467C960.009593 380.298446 954.062138 370.490056 945.083649 366.644471zM510.98488 635.808794c-6.525624 0-12.93152-1.340531-19.031449-3.962242L226.412636 517.634324 226.412636 675.333996c0 129.162732 193.656605 167.930687 254.210749 167.930687l60.690244 0c45.354977 0 254.226099-38.767955 254.226099-167.930687L795.539728 517.634324 529.98256 631.846552C523.900028 634.467239 517.510504 635.808794 510.98488 635.808794z" p-id="10422"></path></svg>