<?xml version="1.0" standalone="no"?><!DOCTYPE svg PUBLIC "-//W3C//DTD SVG 1.1//EN" "http://www.w3.org/Graphics/SVG/1.1/DTD/svg11.dtd"><svg t="1487173075636" class="icon" style="" viewBox="0 0 1024 1024" version="1.1" xmlns="http://www.w3.org/2000/svg" p-id="6433" xmlns:xlink="http://www.w3.org/1999/xlink" width="200" height="200"><defs><style type="text/css">@font-face { font-family: uc-nexus-iconfont; src: url("chrome-extension://pogijhnlcfmcppgimcaccdkmbedjkmhi/res/font_9qmmi8b8jsxxbt9.woff") format("woff"), url("chrome-extension://pogijhnlcfmcppgimcaccdkmbedjkmhi/res/font_9qmmi8b8jsxxbt9.ttf") format("truetype"); }
</style></defs><path d="M645.552827 146.577874l-267.139181 0c-40.902334 0-74.328259 34.33114-74.328259 76.272796l0 578.265134c0 41.941656 33.459451 76.272796 74.328259 76.272796l267.139181 0c40.902334 0 74.328259-34.33114 74.328259-76.272796L719.881086 222.85067C719.914612 180.909014 686.455162 146.577874 645.552827 146.577874L645.552827 146.577874zM452.775431 184.731035l118.449137 0 0 25.41309-118.449137 0L452.775431 184.731035 452.775431 184.731035zM514.095406 826.56242c-27.357627 0-49.552172-22.764496-49.552172-50.859706 0-28.061684 22.194545-50.859706 49.552172-50.859706 27.357627 0 49.552172 22.764496 49.552172 50.859706C563.647579 803.797924 541.453033 826.56242 514.095406 826.56242L514.095406 826.56242zM670.328913 674.016829l-316.691353 0L353.63756 248.297286l316.691353 0L670.328913 674.016829 670.328913 674.016829zM670.328913 674.016829" p-id="6434" fill="#ffffff"></path></svg>