<?xml version="1.0" standalone="no"?><!DOCTYPE svg PUBLIC "-//W3C//DTD SVG 1.1//EN" "http://www.w3.org/Graphics/SVG/1.1/DTD/svg11.dtd"><svg t="1487175917904" class="icon" style="" viewBox="0 0 1024 1024" version="1.1" xmlns="http://www.w3.org/2000/svg" p-id="20853" xmlns:xlink="http://www.w3.org/1999/xlink" width="200" height="200"><defs><style type="text/css">@font-face { font-family: uc-nexus-iconfont; src: url("chrome-extension://pogijhnlcfmcppgimcaccdkmbedjkmhi/res/font_9qmmi8b8jsxxbt9.woff") format("woff"), url("chrome-extension://pogijhnlcfmcppgimcaccdkmbedjkmhi/res/font_9qmmi8b8jsxxbt9.ttf") format("truetype"); }
</style></defs><path d="M926.927127 80.599689 94.055143 80.599689c-14.838963 0-26.866904 12.029988-26.866904 26.865881l0 631.364575c0 14.835893 12.027941 26.865881 26.866904 26.865881l322.401828 0 0 120.912837-94.033653 0c-7.41897 0-13.43294 6.012947-13.43294 13.430894l0 26.865881c0 7.417947 6.013971 13.434987 13.43294 13.434987l349.268732 0c7.41897 0 13.43294-6.01704 13.43294-13.434987L685.124989 900.038734c0-7.417947-6.013971-13.430894-13.43294-13.430894l-94.033653 0L577.658396 765.696026l349.268732 0c14.838963 0 26.866904-12.029988 26.866904-26.865881L953.794032 107.46557C953.794032 92.629677 941.765067 80.599689 926.927127 80.599689zM913.493164 711.974497c0 7.417947-6.013971 13.430894-13.433964 13.430894L120.922047 725.405391c-7.41897 0-13.43294-6.012947-13.43294-13.430894L107.489106 134.330428c0-7.42204 6.013971-13.434987 13.43294-13.434987L900.060223 120.895441c7.41897 0 13.433964 6.012947 13.433964 13.434987L913.494187 711.974497zM873.193319 147.766438 147.788951 147.766438c-7.41897 0-13.433964 6.011924-13.433964 13.434987L134.354987 685.1035c0 7.417947 6.013971 13.430894 13.433964 13.430894l725.404368 0c7.41897 0 13.43294-6.012947 13.43294-13.430894L886.626259 161.201425C886.626259 153.778362 880.612289 147.766438 873.193319 147.766438z" p-id="20854"></path></svg>