<?xml version="1.0" standalone="no"?><!DOCTYPE svg PUBLIC "-//W3C//DTD SVG 1.1//EN" "http://www.w3.org/Graphics/SVG/1.1/DTD/svg11.dtd"><svg t="1487176041306" class="icon" style="" viewBox="0 0 1024 1024" version="1.1" xmlns="http://www.w3.org/2000/svg" p-id="24396" xmlns:xlink="http://www.w3.org/1999/xlink" width="200" height="200"><defs><style type="text/css">@font-face { font-family: uc-nexus-iconfont; src: url("chrome-extension://pogijhnlcfmcppgimcaccdkmbedjkmhi/res/font_9qmmi8b8jsxxbt9.woff") format("woff"), url("chrome-extension://pogijhnlcfmcppgimcaccdkmbedjkmhi/res/font_9qmmi8b8jsxxbt9.ttf") format("truetype"); }
</style></defs><path d="M386.252041 870.12033c0 13.665231-11.07729 24.742521-24.742521 24.742521l0 0c-13.665231 0-24.742521-11.07729-24.742521-24.742521L336.767 153.87967c0-13.665231 11.07729-24.742521 24.742521-24.742521l0 0c13.665231 0 24.742521 11.07729 24.742521 24.742521L386.252041 870.12033z" p-id="24397"></path><path d="M209.574133 363.446639c-13.32447 13.32447-34.929534 13.32447-48.254004 0l0 0c-13.32447-13.325493-13.32447-34.929534 0-48.254004l176.061878-176.061878c13.32447-13.325493 34.929534-13.325493 48.254004 0l0 0c13.325493 13.32447 13.325493 34.929534 0 48.254004L209.574133 363.446639z" p-id="24398"></path><path d="M561.698912 315.192635c13.325493 13.325493 13.325493 34.929534 0 48.254004l0 0c-13.32447 13.32447-34.92851 13.32447-48.254004 0L337.38303 187.384761c-13.325493-13.325493-13.325493-34.929534 0-48.254004l0 0c13.32447-13.325493 34.929534-13.325493 48.254004 0L561.698912 315.192635z" p-id="24399"></path><path d="M637.746936 153.87967c0-13.665231 11.07729-24.742521 24.742521-24.742521l0 0c13.665231 0 24.742521 11.07729 24.742521 24.742521L687.231977 870.12033c0 13.665231-11.07729 24.742521-24.742521 24.742521l0 0c-13.665231 0-24.742521-11.078313-24.742521-24.742521L637.746936 153.87967z" p-id="24400"></path><path d="M814.424844 660.552338c13.32447-13.32447 34.92851-13.32447 48.254004 0l0 0c13.32447 13.325493 13.32447 34.929534 0 48.254004L686.61697 884.869243c-13.32447 13.32447-34.929534 13.32447-48.254004 0l0 0c-13.325493-13.325493-13.325493-34.929534 0-48.254004L814.424844 660.552338z" p-id="24401"></path><path d="M462.301088 708.807365c-13.325493-13.325493-13.325493-34.929534 0-48.254004l0 0c13.325493-13.32447 34.929534-13.32447 48.254004 0l176.061878 176.061878c13.32447 13.325493 13.32447 34.929534 0 48.254004l0 0c-13.32447 13.32447-34.929534 13.32447-48.254004 0L462.301088 708.807365z" p-id="24402"></path></svg>