<?xml version="1.0" standalone="no"?><!DOCTYPE svg PUBLIC "-//W3C//DTD SVG 1.1//EN" "http://www.w3.org/Graphics/SVG/1.1/DTD/svg11.dtd"><svg t="1487175867310" class="icon" style="" viewBox="0 0 1024 1024" version="1.1" xmlns="http://www.w3.org/2000/svg" p-id="20181" xmlns:xlink="http://www.w3.org/1999/xlink" width="200" height="200"><defs><style type="text/css">@font-face { font-family: uc-nexus-iconfont; src: url("chrome-extension://pogijhnlcfmcppgimcaccdkmbedjkmhi/res/font_9qmmi8b8jsxxbt9.woff") format("woff"), url("chrome-extension://pogijhnlcfmcppgimcaccdkmbedjkmhi/res/font_9qmmi8b8jsxxbt9.ttf") format("truetype"); }
</style></defs><path d="M0 353.984l1024 0 0 124.032-1024 0 0-124.032Z" p-id="20182"></path><path d="M126.016 478.016l128 0 0 488-128 0 0-488Z" p-id="20183"></path><path d="M446.016 478.016l128 0 0 476.032-128 0 0-476.032Z" p-id="20184"></path><path d="M768 478.016l124.032 0 0 476.032-124.032 0 0-476.032Z" p-id="20185"></path><path d="M0 864l1024 0 0 128-1024 0 0-128Z" p-id="20186"></path><path d="M1024 220.032 510.016 32 0 220.032 0 288 1024 288Z" p-id="20187"></path></svg>