<?xml version="1.0" standalone="no"?><!DOCTYPE svg PUBLIC "-//W3C//DTD SVG 1.1//EN" "http://www.w3.org/Graphics/SVG/1.1/DTD/svg11.dtd"><svg t="1487175828439" class="icon" style="" viewBox="0 0 1024 1024" version="1.1" xmlns="http://www.w3.org/2000/svg" p-id="19507" xmlns:xlink="http://www.w3.org/1999/xlink" width="200" height="200"><defs><style type="text/css">@font-face { font-family: uc-nexus-iconfont; src: url("chrome-extension://pogijhnlcfmcppgimcaccdkmbedjkmhi/res/font_9qmmi8b8jsxxbt9.woff") format("woff"), url("chrome-extension://pogijhnlcfmcppgimcaccdkmbedjkmhi/res/font_9qmmi8b8jsxxbt9.ttf") format("truetype"); }
</style></defs><path d="M601.088 996.096c0 0 212.864 60.608 316.992 0l79.232-99.456c0 0 55.936-83.968 0-122.752l-200.448-149.184c0 0-77.696-57.472-121.216 0l-51.328 51.264c0 0-49.664 46.656-99.456-1.472L326.08 474.048c0 0-54.4-40.384 0-79.232l71.424-45.056c0 0 60.608-54.4 3.136-122.752L274.752 26.496c0 0-77.696-57.472-170.88 0L24.576 101.12c0 0-51.264 55.936 0 295.232C24.576 396.288 114.688 680.704 601.088 996.096z" p-id="19508"></path></svg>