<?xml version="1.0" standalone="no"?><!DOCTYPE svg PUBLIC "-//W3C//DTD SVG 1.1//EN" "http://www.w3.org/Graphics/SVG/1.1/DTD/svg11.dtd"><svg t="1487173544160" class="icon" style="" viewBox="0 0 1024 1024" version="1.1" xmlns="http://www.w3.org/2000/svg" p-id="12428" xmlns:xlink="http://www.w3.org/1999/xlink" width="200" height="200"><defs><style type="text/css">@font-face { font-family: uc-nexus-iconfont; src: url("chrome-extension://pogijhnlcfmcppgimcaccdkmbedjkmhi/res/font_9qmmi8b8jsxxbt9.woff") format("woff"), url("chrome-extension://pogijhnlcfmcppgimcaccdkmbedjkmhi/res/font_9qmmi8b8jsxxbt9.ttf") format("truetype"); }
</style></defs><path d="M128.341333 435.395048c55.929905-191.634286 178.371048-328.362667 402.334477-347.818667 15.408762-1.365333 37.010286-0.146286 54.613333-3.510857 15.164952-2.974476 33.694476-13.945905 51.151238-21.162667 70.948571-29.159619 227.718095-80.359619 306.907429-17.554286 68.705524 54.662095 56.027429 187.440762 13.604571 274.090667a471.381333 471.381333 0 0 1 44.324571 270.57981c-198.948571 8.192-430.762667 1.121524-624.054857 3.559619 6.485333 103.082667 71.143619 182.02819 167.107048 193.194666 93.769143 10.922667 158.573714-42.130286 201.191619-101.863619h238.640762c-62.025143 178.322286-219.623619 316.611048-463.676953 298.666667-55.491048-4.144762-98.742857-20.333714-146.675809-38.716952-79.969524 43.78819-256.926476 108.836571-327.338667 17.554285-53.443048-69.290667-19.114667-195.34019 10.24-277.504 59.392-166.521905 172.422095-331.483429 283.014095-425.203809 0.633905-2.876952 3.413333-3.559619 3.413334-7.021715-87.381333 44.665905-146.285714 118.637714-214.796191 182.710858z m838.802286-259.998477c-3.267048-119.612952-157.354667-107.861333-238.738286-59.733333 90.843429 36.376381 157.159619 98.06019 211.382857 172.129524 11.849143-37.546667 28.574476-68.705524 27.355429-112.396191zM377.222095 466.992762h378.489905c-10.971429-244.394667-366.592-224.646095-378.489905 0z m-279.600762 428.714667c18.968381 108.202667 170.325333 76.702476 238.689524 28.135619-89.770667-50.468571-145.749333-135.655619-190.951619-232.009143-20.967619 52.175238-60.269714 132.437333-47.737905 203.873524z" p-id="12429"></path></svg>